<?xml version="1.0" encoding="utf-8"?>
<!-- Generator: Adobe Illustrator 19.0.0, SVG Export Plug-In . SVG Version: 6.00 Build 0)  -->
<svg version="1.1" id="Layer_1" xmlns="http://www.w3.org/2000/svg" xmlns:xlink="http://www.w3.org/1999/xlink" x="0px" y="0px"
	 viewBox="0 0 152 152" style="enable-background:new 0 0 152 152;" xml:space="preserve">
<style type="text/css">
	.st0{fill:#375166;}
	.st1{fill:#7DB9EA;}
	.st2{fill:#E5F1FB;}
	.st3{fill:#FFFFFF;}
</style>
<g id="XMLID_26_">
	<g id="XMLID_24_">
		<g id="XMLID_55_">
			<path id="XMLID_126_" class="st0" d="M75.3,64H34.5V47.4c0-11.3,9.2-20.4,20.4-20.4s20.4,9.2,20.4,20.4V64z M40.5,58h28.8V47.4
				c0-7.9-6.5-14.4-14.4-14.4s-14.4,6.5-14.4,14.4V58z"/>
		</g>
		<g id="XMLID_17_">
			<path id="XMLID_28_" class="st1" d="M86.4,103h-63c-1.1,0-2-0.9-2-2V60c0-1.1,0.9-2,2-2h63c1.1,0,2,0.9,2,2v41
				C88.4,102.1,87.5,103,86.4,103z"/>
			<rect id="XMLID_89_" x="21.4" y="66.7" class="st2" width="67" height="27.5"/>
		</g>
		<g id="XMLID_14_">
			<circle id="XMLID_16_" class="st0" cx="54.6" cy="76" r="4.9"/>
			<path id="XMLID_15_" class="st0" d="M54.6,91.4L54.6,91.4c2,0,3.4-1.6,3.1-3.4l-1.5-10.7c-0.1-0.4-0.8-0.8-1.6-0.8l0,0
				c-0.8,0-1.6,0.3-1.6,0.8L51.5,88C51.3,89.7,52.7,91.4,54.6,91.4z"/>
		</g>
	</g>
	<path id="XMLID_35_" class="st3" d="M88.4,103.1V79.8c-20.2,2.5-37.1,23.3-37.1,23.3H88.4z"/>
	<g id="XMLID_19_">
		<g id="XMLID_18_">
			<path id="XMLID_20_" class="st2" d="M130.6,105.3c0,0-17,18-38,18s-38-18-38-18s17-21,38-21S130.6,105.3,130.6,105.3z"/>
			<path id="XMLID_428_" class="st2" d="M130.6,105.3c0,0-17,18-38,18s-38-18-38-18s17-21,38-21S130.6,105.3,130.6,105.3z"/>
			<circle id="XMLID_476_" class="st1" cx="91.5" cy="104.1" r="15"/>
			<path id="XMLID_281_" class="st3" d="M87.7,106.6c2.3-2.3,6.1-2.3,8.5,0c1.1,1.1,1.6,2.4,1.7,3.8c3.4-3.5,3.4-9.1-0.1-12.6
				c-3.5-3.5-9.2-3.5-12.7,0c-3.5,3.5-3.5,9.2,0,12.7c0.3,0.3,0.6,0.5,0.9,0.7C85.8,109.6,86.4,107.9,87.7,106.6z"/>
			<path id="XMLID_700_" class="st0" d="M95.9,105c-3.3,0-6-2.7-6-6c0-1.5,0.6-2.9,1.5-3.9c-4.9,0.1-8.9,4.1-8.9,9c0,5,4,9,9,9
				c5,0,9-4,9-9c0-0.4,0-0.8-0.1-1.1C99.3,104.2,97.7,105,95.9,105z"/>
			<g id="XMLID_753_">
				<path id="XMLID_759_" class="st2" d="M81.7,97.2L81.7,97.2c0.5,0.6,1.4,0.6,1.9,0.1c1.2-1.4,2.7-2.4,4.4-2.9
					c0.5-0.1,0.8-0.6,0.9-1.1v0c0.1-0.9-0.8-1.6-1.6-1.3c-2.2,0.7-4.1,1.9-5.5,3.6C81.4,96.1,81.3,96.8,81.7,97.2z"/>
			</g>
			<g id="XMLID_817_">
				<path id="XMLID_822_" class="st3" d="M71.1,117.5c1.7,0.9,3.5,1.7,5.4,2.5l41.6-26.2c-1.4-1-3-2.1-4.6-3L71.1,117.5z"/>
			</g>
			<path id="XMLID_725_" class="st1" d="M59.4,124.6l-0.3-0.4c-0.3-0.5-0.2-1.1,0.3-1.4l62.7-39.4c0.5-0.3,1.1-0.2,1.4,0.3l0.3,0.4
				c0.3,0.5,0.2,1.1-0.3,1.4l-62.7,39.4C60.3,125.2,59.7,125,59.4,124.6z"/>
		</g>
	</g>
</g>
</svg>
