<?xml version="1.0" encoding="utf-8"?>
<!-- Generator: Adobe Illustrator 19.0.0, SVG Export Plug-In . SVG Version: 6.00 Build 0)  -->
<svg version="1.1" id="Layer_1" xmlns="http://www.w3.org/2000/svg" xmlns:xlink="http://www.w3.org/1999/xlink" x="0px" y="0px"
	 viewBox="0 0 48 48" style="enable-background:new 0 0 48 48;" xml:space="preserve">
<style type="text/css">
	.st0{fill:#C4C4C4;}
	.st1{fill:#E0E0E0;}
	.st2{fill:#EEEEEE;}
</style>
<g id="Group_3660" transform="translate(7026.973 3541.032)">
	<path id="XMLID_27_" class="st0" d="M-7012.4-3534.1l26.2-2.1c0.2,0,0.4,0.1,0.4,0.3c0,0,0,0,0,0l2.3,28.5l-39.1,3.1l-2.5-31.1
		c0-0.2,0.1-0.4,0.3-0.4c0,0,0,0,0,0l9.2-0.7c0.6,0,1.2,0.3,1.5,0.9C-7013.8-3534.8-7013.3-3534-7012.4-3534.1z"/>
	<path id="XMLID_26_" class="st1" d="M-6987.8-3526.6l4.4,19.8l-39.2,3.1l-4.3-19.7c0-0.2,0.1-0.4,0.3-0.4c0,0,0,0,0.1,0l38.5-3.1
		C-6988-3526.9-6987.8-3526.8-6987.8-3526.6z"/>
	<g id="XMLID_15_" transform="translate(45.947 -0.032)">
		<path id="XMLID_25_" class="st2" d="M-7032.3-3496.7l-25-6.1c-0.3-0.1-0.5-0.4-0.4-0.7c0,0,0,0,0,0l8.1-33.3
			c0.1-0.3,0.4-0.5,0.7-0.4c0,0,0,0,0,0l19.1,4.7l4.9,8l-6.7,27.4C-7031.7-3496.9-7032-3496.7-7032.3-3496.7z"/>
		<path id="XMLID_24_" class="st0" d="M-7025.5-3522.2l-5.3-3.8l5.9,1.4L-7025.5-3522.2z"/>
		<path id="XMLID_23_" class="st1" d="M-7024.9-3524.5l-5.9-1.4c-0.3-0.1-0.5-0.4-0.4-0.7c0,0,0,0,0,0l1.4-5.9L-7024.9-3524.5z"/>
		<path id="XMLID_16_" class="st0" d="M-7040.8-3517.8c-0.3,0.5-0.7,1-1.1,1.5c-0.2,0.2-0.4,0.4-0.5,0.6l0.1,0l0,0
			c0.8-0.1,1.6-0.1,2.4-0.1c-0.1-0.1-0.2-0.2-0.2-0.3C-7040.5-3516.6-7040.7-3517.2-7040.8-3517.8 M-7037-3514.2
			c-0.2,0.1-0.5,0.1-0.7,0c-0.7-0.2-1.3-0.5-1.9-1c-0.9-0.1-1.9-0.2-2.9-0.2c0,0-0.1,0-0.1,0c-1.2,1.2-2,1.7-2.5,1.6
			c-0.1,0-0.2-0.1-0.3-0.1l-0.3-0.3l0,0c0-0.1,0-0.3,0.1-0.4c0.2-0.3,0.7-0.8,1.6-1.1c0.2-0.1,0.5-0.1,0.7-0.2
			c0.3-0.3,0.6-0.7,0.9-1.1c0.4-0.6,0.8-1.2,1.2-1.8v0c0-0.9-0.1-1.3,0.4-2.1c0.1-0.2,0.4-0.3,0.7-0.3l0.2,0c0.2,0,0.3,0,0.4,0.2
			c0.3,0.6-0.1,1.5-0.6,2.4c0,0,0,0,0,0.1c0,0.7,0.3,1.4,0.7,2c0.2,0.2,0.3,0.4,0.5,0.5c0.3,0,0.6,0.1,0.9,0.2
			c0.8,0.2,1.3,0.5,1.4,0.8c0,0.1,0,0.3,0,0.4C-7036.8-3514.4-7036.9-3514.2-7037-3514.2 M-7034.5-3521.7l-9.4-2.3
			c-0.8-0.2-1.4,0-1.6,0.7l-2.3,9.5c-0.2,0.7,0.2,1.5,1,1.7l9.5,2.3c0.8,0.2,1.5-0.3,1.7-1.1l2.3-9.5
			C-7033.1-3521-7033.7-3521.6-7034.5-3521.7 M-7037.2-3514.7c0-0.1-0.3-0.3-1.2-0.6c-0.1,0-0.1,0-0.2,0c0.4,0.3,0.8,0.5,1.2,0.6
			C-7037.3-3514.6-7037.3-3514.6-7037.2-3514.7l0,0.1C-7037.2-3514.6-7037.2-3514.6-7037.2-3514.7
			C-7037.2-3514.7-7037.2-3514.7-7037.2-3514.7 M-7043.7-3515.2c-0.1,0-0.3,0.1-0.4,0.1c-0.5,0.2-0.8,0.5-1.1,0.9
			C-7044.8-3514.2-7044.3-3514.5-7043.7-3515.2 M-7040.5-3519.4L-7040.5-3519.4c0.1-0.2,0.2-0.4,0.3-0.6l0-0.1
			c0.1-0.2,0.2-0.5,0.1-0.8l-0.1-0.1c0,0,0,0-0.1,0.1C-7040.4-3520.4-7040.5-3519.9-7040.5-3519.4z"/>
	</g>
</g>
</svg>
