<?xml version="1.0" encoding="utf-8"?>
<!-- Generator: Adobe Illustrator 19.0.0, SVG Export Plug-In . SVG Version: 6.00 Build 0)  -->
<svg version="1.1" id="Layer_1" xmlns="http://www.w3.org/2000/svg" xmlns:xlink="http://www.w3.org/1999/xlink" x="0px" y="0px"
	 viewBox="0 0 48 48" style="enable-background:new 0 0 48 48;" xml:space="preserve">
<style type="text/css">
	.st0{fill:#00B9A7;}
	.st1{fill:#00BE28;}
	.st2{fill:#009E4A;}
	.st3{fill:#006DC8;}
	.st4{fill:#00682A;}
</style>
<g id="XMLID_308_">
	<path id="XMLID_357_" class="st0" d="M10.7,22.2l7.9-13.7c-0.9-1.6-1.9-3.3-2.8-4.9c-1.1-1.9-3.8-1.9-4.8,0L0.2,22.2
		c-0.5,0.9-0.5,1.9,0,2.8L11,43.6c1.1,1.9,3.8,1.9,4.8,0l2.8-4.9L10.7,25C10.2,24.2,10.2,23.1,10.7,22.2z"/>
	<path id="XMLID_356_" class="st1" d="M29.1,8.5c-0.9-1.6-1.9-3.3-2.8-4.9c-1.1-1.9-3.8-1.9-4.8,0l-2.8,4.9c1.7,3,3.5,6,5.2,9.1
		L29.1,8.5z"/>
	<path id="XMLID_355_" class="st1" d="M18.6,38.7l2.8,4.9c1.1,1.9,3.8,1.9,4.8,0l2.8-4.9l-5.2-9.1L18.6,38.7z"/>
	<path id="XMLID_354_" class="st2" d="M21.2,25c-0.5-0.9-0.5-1.9,0-2.8l2.7-4.6c-1.7-3-3.5-6-5.2-9.1l-7.9,13.7
		c-0.5,0.9-0.5,1.9,0,2.8l7.9,13.7l5.2-9.1L21.2,25z"/>
	<path id="XMLID_353_" class="st3" d="M47.5,22.2C43.9,16,40.3,9.8,36.7,3.6c-1.1-1.9-3.8-1.9-4.8,0l-2.8,4.9
		c2.6,4.6,5.3,9.2,7.9,13.7c0.5,0.9,0.5,1.9,0,2.8l-7.9,13.7l2.8,4.9c1.1,1.9,3.8,1.9,4.8,0L47.5,25C48,24.2,48,23.1,47.5,22.2z"/>
	<path id="XMLID_334_" class="st4" d="M37,22.2c-2.6-4.6-5.3-9.1-7.9-13.7l-5.2,9.1l-2.7,4.6c-0.5,0.9-0.5,1.9,0,2.8l2.7,4.6
		l5.2,9.1L37,25C37.5,24.2,37.5,23.1,37,22.2z"/>
</g>
</svg>
