<?xml version="1.0" encoding="utf-8"?>
<!-- Generator: Adobe Illustrator 19.0.0, SVG Export Plug-In . SVG Version: 6.00 Build 0)  -->
<svg version="1.1" id="Layer_4" xmlns="http://www.w3.org/2000/svg" xmlns:xlink="http://www.w3.org/1999/xlink" x="0px" y="0px"
	 viewBox="0 0 123.4 30" enable-background="new 0 0 123.4 30" xml:space="preserve">
<g id="XMLID_308_">
	<path id="XMLID_273_" fill="#00B9A7" d="M7.6,14l5.6-9.6c-0.7-1.1-1.3-2.3-2-3.4c-0.8-1.3-2.6-1.3-3.4,0L0.3,14
		c-0.4,0.6-0.3,1.4,0,2l7.5,13c0.8,1.3,2.6,1.3,3.4,0l2-3.4L7.6,16C7.3,15.4,7.3,14.6,7.6,14z"/>
	<path id="XMLID_272_" fill="#00BE28" d="M20.5,4.4c-0.7-1.1-1.3-2.3-2-3.4c-0.8-1.3-2.6-1.3-3.4,0l-2,3.4c1.2,2.1,2.4,4.2,3.7,6.4
		L20.5,4.4z"/>
	<path id="XMLID_355_" fill="#00BE28" d="M13.2,25.6l2,3.4c0.8,1.3,2.6,1.3,3.4,0l2-3.4l-3.7-6.4L13.2,25.6z"/>
	<path id="XMLID_354_" fill="#009E4A" d="M15,16c-0.4-0.6-0.4-1.4,0-2l1.9-3.3c-1.2-2.1-2.4-4.2-3.7-6.4L7.6,14
		c-0.4,0.6-0.3,1.4,0,2l5.6,9.6l3.7-6.4L15,16z"/>
	<path id="XMLID_353_" fill="#006DC8" d="M33.4,14c-2.5-4.3-5-8.7-7.5-13c-0.8-1.3-2.6-1.3-3.4,0l-2,3.4c1.9,3.2,3.7,6.4,5.6,9.6
		c0.3,0.6,0.3,1.4,0,2l-5.6,9.6l2,3.4c0.8,1.3,2.6,1.3,3.4,0l7.5-13C33.8,15.4,33.8,14.6,33.4,14z"/>
	<path id="XMLID_334_" fill="#00682A" d="M26.1,14c-1.8-3.2-3.7-6.4-5.6-9.6l-3.7,6.4L15,14c-0.4,0.6-0.3,1.4,0,2l1.9,3.3l3.7,6.4
		l5.6-9.6C26.4,15.4,26.4,14.6,26.1,14z"/>
</g>
<g id="XMLID_304_">
	<path id="XMLID_309_" opacity="0.87" d="M51.5,15.7c0,3.5-2.8,6.1-6.2,6.1c-3.4,0-6.2-2.6-6.2-6.1s2.8-6.2,6.2-6.2
		C48.7,9.6,51.5,12.2,51.5,15.7z M41.6,15.7c0,2.4,1.7,4.1,3.7,4.1c2,0,3.7-1.7,3.7-4.1c0-2.4-1.7-4.1-3.7-4.1
		C43.3,11.6,41.6,13.3,41.6,15.7z"/>
	<path id="XMLID_312_" opacity="0.87" d="M59.7,11.9c-0.2-0.1-0.7-0.3-1.1-0.3c-2,0-3,1.9-3,4.3v5.7h-2.5V9.8h2.5v1.7
		c0.3-1.1,1.6-1.9,3-1.9c0.6,0,1.3,0.2,1.7,0.4L59.7,11.9z"/>
	<path id="XMLID_314_" opacity="0.87" d="M72.6,15.7c0,3.5-2.8,6.1-6.2,6.1c-3.4,0-6.2-2.6-6.2-6.1s2.8-6.2,6.2-6.2
		C69.8,9.6,72.6,12.2,72.6,15.7z M62.7,15.7c0,2.4,1.7,4.1,3.7,4.1c2,0,3.7-1.7,3.7-4.1c0-2.4-1.7-4.1-3.7-4.1
		C64.3,11.6,62.7,13.3,62.7,15.7z"/>
	<path id="XMLID_317_" opacity="0.87" d="M84.8,21.7h-2.5l0-0.1v-6.5c0-2.4-0.6-3.5-2.7-3.5c-2.3,0-3.1,1.6-3.1,3.7v6.4h-2.5V9.8
		h2.5v1.9c0.3-1.1,1.7-2,3.1-2.1c2.3-0.2,4,0.6,4.7,2.5c0.5-1.6,2.1-2.4,3.5-2.5c3.2-0.2,5.1,1.3,5.1,5.2v6.8h-2.5v-6.6
		c0-2.4-0.6-3.5-2.7-3.5c-2.1,0-2.9,1.3-3.1,3.2V21.7z"/>
	<path id="XMLID_319_" opacity="0.87" d="M96.4,8.8c-0.7,0-1.3-0.6-1.3-1.4c0-0.7,0.6-1.3,1.3-1.3c0.8,0,1.4,0.6,1.4,1.3
		C97.8,8.2,97.2,8.8,96.4,8.8z M97.6,21.7h-2.5V9.8h2.5V21.7z"/>
	<path id="XMLID_322_" opacity="0.87" d="M110.1,20.1c-1.1,1.2-2.7,1.8-4.5,1.8c-3.4,0-6.2-2.6-6.2-6.1s2.8-6.2,6.2-6.2
		c1.8,0,3.4,0.6,4.5,1.8l-1.7,1.5c-0.7-0.9-1.7-1.3-2.8-1.3c-2,0-3.7,1.7-3.7,4.1c0,2.4,1.7,4.1,3.7,4.1c1.1,0,2.1-0.4,2.8-1.3
		L110.1,20.1z"/>
	<path id="XMLID_324_" opacity="0.87" d="M123.4,15.7c0,3.5-2.8,6.1-6.2,6.1c-3.4,0-6.2-2.6-6.2-6.1s2.8-6.2,6.2-6.2
		C120.6,9.6,123.4,12.2,123.4,15.7z M113.5,15.7c0,2.4,1.7,4.1,3.7,4.1c2,0,3.7-1.7,3.7-4.1c0-2.4-1.7-4.1-3.7-4.1
		C115.2,11.6,113.5,13.3,113.5,15.7z"/>
</g>
</svg>
