<?xml version="1.0" encoding="utf-8"?>
<!-- Generator: Adobe Illustrator 19.0.0, SVG Export Plug-In . SVG Version: 6.00 Build 0)  -->
<svg version="1.1" id="Layer_1" xmlns="http://www.w3.org/2000/svg" xmlns:xlink="http://www.w3.org/1999/xlink" x="0px" y="0px"
	 viewBox="0 0 100 48" style="enable-background:new 0 0 100 48;" xml:space="preserve">
<style type="text/css">
	.st0{opacity:0.87;}
</style>
<g id="XMLID_304_">
	<path id="XMLID_309_" class="st0" d="M14.6,26.2c0,4.2-3.3,7.3-7.3,7.3c-4,0-7.3-3.1-7.3-7.3s3.3-7.3,7.3-7.3
		C11.4,18.9,14.6,22,14.6,26.2z M2.9,26.2c0,2.9,2,4.9,4.4,4.9c2.4,0,4.4-2.1,4.4-4.9c0-2.9-2-4.9-4.4-4.9
		C4.9,21.3,2.9,23.4,2.9,26.2z"/>
	<path id="XMLID_312_" class="st0" d="M24.4,21.6c-0.2-0.1-0.8-0.3-1.3-0.3c-2.4,0-3.6,2.3-3.6,5.2v6.8h-2.9V19.2h2.9v2
		c0.3-1.3,1.9-2.3,3.5-2.3c0.8,0,1.6,0.2,2,0.4L24.4,21.6z"/>
	<path id="XMLID_314_" class="st0" d="M39.7,26.2c0,4.2-3.3,7.3-7.3,7.3c-4,0-7.3-3.1-7.3-7.3s3.3-7.3,7.3-7.3
		C36.4,18.9,39.7,22,39.7,26.2z M27.9,26.2c0,2.9,2,4.9,4.4,4.9c2.4,0,4.4-2.1,4.4-4.9c0-2.9-2-4.9-4.4-4.9
		C29.9,21.3,27.9,23.4,27.9,26.2z"/>
	<path id="XMLID_317_" class="st0" d="M54.3,33.2h-3l0-0.1v-7.7c0-2.9-0.7-4.1-3.2-4.1c-2.7,0-3.7,1.9-3.7,4.4v7.6h-2.9V19.2h2.9
		v2.3c0.4-1.3,2-2.4,3.7-2.5c2.8-0.2,4.7,0.7,5.6,3c0.6-1.9,2.5-2.9,4.2-3c3.8-0.3,6.1,1.6,6.1,6.2v8.1h-2.9v-7.8
		c0-2.9-0.7-4.1-3.2-4.1c-2.5,0-3.5,1.5-3.7,3.8V33.2z"/>
	<path id="XMLID_319_" class="st0" d="M69.5,33.2h-2.9V19.2h2.9V33.2z"/>
	<path id="XMLID_322_" class="st0" d="M84.3,31.4c-1.3,1.5-3.2,2.1-5.4,2.1c-4,0-7.3-3.1-7.3-7.3s3.3-7.3,7.3-7.3
		c2.1,0,4,0.7,5.4,2.1l-2,1.8c-0.8-1.1-2-1.5-3.4-1.5c-2.4,0-4.4,2-4.4,4.9c0,2.9,2,4.9,4.4,4.9c1.3,0,2.5-0.4,3.4-1.6L84.3,31.4z"
		/>
	<path id="XMLID_324_" class="st0" d="M100,26.2c0,4.2-3.3,7.3-7.3,7.3c-4,0-7.3-3.1-7.3-7.3s3.3-7.3,7.3-7.3
		C96.7,18.9,100,22,100,26.2z M88.3,26.2c0,2.9,2,4.9,4.4,4.9c2.4,0,4.4-2.1,4.4-4.9c0-2.9-2-4.9-4.4-4.9
		C90.3,21.3,88.3,23.4,88.3,26.2z"/>
</g>
<path id="XMLID_321_" class="st0" d="M68,17.7c-0.9,0-1.6-0.7-1.6-1.6c0-0.9,0.7-1.6,1.6-1.6c0.9,0,1.6,0.7,1.6,1.6
	C69.6,17,68.9,17.7,68,17.7z"/>
</svg>
