<svg xmlns="http://www.w3.org/2000/svg" viewBox="0 0 90 90"><title>Ресурс 1</title><g id="Слой_2" data-name="Слой 2"><g id="Vrstva_1" data-name="Vrstva 1"><path d="M75,10.91H69.54V4.09a4.09,4.09,0,0,0-8.18,0v6.82H28.64V4.09a4.09,4.09,0,0,0-8.18,0v6.82H15a15,15,0,0,0-15,15V75A15,15,0,0,0,15,90H61.36l.26-.05,1-.21.4-.14,1.19-.8L88.8,64.26l.8-1.21.13-.37.21-1.06.05-.25V25.91A15,15,0,0,0,75,10.91ZM15,19.09h5.46v1.36a4.09,4.09,0,0,0,8.18,0V19.09H61.36v1.36a4.09,4.09,0,0,0,8.18,0V19.09H75a6.83,6.83,0,0,1,6.82,6.82V30H8.18V25.91A6.83,6.83,0,0,1,15,19.09ZM8.18,75V38.17H81.82V57.27H69.55A12.27,12.27,0,0,0,57.27,69.55V81.82H15A6.83,6.83,0,0,1,8.18,75Zm57.27,1V69.55a4.1,4.1,0,0,1,4.09-4.09H76l-4.92,4.92Z"/></g></g></svg>